# xmcd CD database file
#
# Track frame offsets:
#	150
#	27271
#	41084
#	57136
#	80030
#	94184
#	116605
#	132085
#	158879
#	180172
#	193417
#	216661
#	240025
#	275057
#
# Disc length: 4111 seconds
#
# Revision: 0
# Processed by: cddbd v1.5.1PL0 Copyright (c) Steve Scherf et al.
# Submitted via: CDex 1.51
#
DISCID=c4100d0e
DTITLE=Zeeza - Complicated Blues
DYEAR=1900
DGENRE=Blues
TTITLE0=You're Always Trying To Numb Me
TTITLE1=And So Will I (sugared version)
TTITLE2=Baby Come Back (acoustic version)
TTITLE3=Because I Needed You
TTITLE4=Drink Up You're Deliverance
TTITLE5=My Complicated Blues
TTITLE6=Nobody's Pain But Mine
TTITLE7=This Is My First Time
TTITLE8=Wanted You To Want Me
TTITLE9=When My Heart Hurts
TTITLE10=You're All Over Me
TTITLE11=I Miss Teasing You (Sexy Blues)
TTITLE12=Cyber Space Love
TTITLE13=MP3 Data
EXTD=
EXTT0=
EXTT1=
EXTT2=
EXTT3=
EXTT4=
EXTT5=
EXTT6=
EXTT7=
EXTT8=
EXTT9=
EXTT10=
EXTT11=
EXTT12=
EXTT13=
PLAYORDER=
